<?xml version="1.0" encoding="UTF-8" standalone="no"?>
<!-- Generator: Adobe Illustrator 22.0.1, SVG Export Plug-In . SVG Version: 6.00 Build 0)  -->

<svg
   xmlns:dc="http://purl.org/dc/elements/1.1/"
   xmlns:cc="http://creativecommons.org/ns#"
   xmlns:rdf="http://www.w3.org/1999/02/22-rdf-syntax-ns#"
   xmlns:svg="http://www.w3.org/2000/svg"
   xmlns="http://www.w3.org/2000/svg"
   xmlns:sodipodi="http://sodipodi.sourceforge.net/DTD/sodipodi-0.dtd"
   xmlns:inkscape="http://www.inkscape.org/namespaces/inkscape"
   version="1.1"
   id="Lager_1"
   x="0px"
   y="0px"
   viewBox="0 0 233.99999 109.5"
   xml:space="preserve"
   sodipodi:docname="logo-simple.svg"
   width="234"
   height="109.5"
   inkscape:version="0.92.4 (5da689c313, 2019-01-14)"><metadata
   id="metadata1043"><rdf:RDF><cc:Work
       rdf:about=""><dc:format>image/svg+xml</dc:format><dc:type
         rdf:resource="http://purl.org/dc/dcmitype/StillImage" /><dc:title></dc:title></cc:Work></rdf:RDF></metadata><defs
   id="defs1041" /><sodipodi:namedview
   pagecolor="#ffffff"
   bordercolor="#666666"
   borderopacity="1"
   objecttolerance="10"
   gridtolerance="10"
   guidetolerance="10"
   inkscape:pageopacity="0"
   inkscape:pageshadow="2"
   inkscape:window-width="1920"
   inkscape:window-height="1017"
   id="namedview1039"
   showgrid="false"
   inkscape:zoom="1.70318"
   inkscape:cx="206.92055"
   inkscape:cy="103.80586"
   inkscape:window-x="-8"
   inkscape:window-y="-8"
   inkscape:window-maximized="1"
   inkscape:current-layer="Lager_1" />
<style
   type="text/css"
   id="style930">
	.st0{fill-rule:evenodd;clip-rule:evenodd;fill:#FFFFFF;}
	.st1{fill-rule:evenodd;clip-rule:evenodd;fill:none;}
	.st2{fill:#FBEA26;}
	.st3{fill-rule:evenodd;clip-rule:evenodd;fill:#191E27;}
	.st4{fill:#FFFFFF;}
	.st5{fill:#191E27;}
</style>

<rect
   x="125.8"
   y="0"
   class="st1"
   width="108.1"
   height="109.4"
   id="rect934"
   style="clip-rule:evenodd;fill:none;fill-rule:evenodd" />
<rect
   x="125.6"
   y="0.099998474"
   class="st2"
   width="108.4"
   height="109.4"
   id="rect936"
   style="fill:#fbea26" />
<polygon
   class="st3"
   points="154.7,153.9 165,153.9 165,135.7 182.5,106.4 171,106.4 160,125.2 149.1,106.4 137.5,106.4 154.7,135.4 "
   id="polygon938"
   style="clip-rule:evenodd;fill:#191e27;fill-rule:evenodd"
   transform="translate(0,-78)" />
<path
   class="st3"
   d="m 213.7,44.5 c -0.9,-1.2 -2.2,-2.2 -3.8,-2.9 -1.6,-0.7 -3.7,-1 -6.1,-1 -1.8,0 -3.6,0.5 -5.4,1.4 -1.8,0.9 -3.4,2.4 -4.5,4.4 h -0.2 V 28.5 h -9.3 V 76 h 9.3 V 58 c 0,-3.5 0.6,-6 1.7,-7.6 1.1,-1.5 3,-2.3 5.5,-2.3 2.2,0 3.8,0.7 4.7,2.1 0.9,1.4 1.3,3.5 1.3,6.4 V 76 h 9.3 V 54.8 c 0,-2.1 -0.2,-4.1 -0.6,-5.8 -0.4,-1.8 -1,-3.3 -1.9,-4.5 z"
   id="path940"
   inkscape:connector-curvature="0"
   style="clip-rule:evenodd;fill:#191e27;fill-rule:evenodd" />

<polygon
   class="st0"
   points="0,187.5 22.3,187.5 22.3,110.7 22.6,110.7 49.1,187.5 67.4,187.5 93.9,109.9 94.2,109.9 94.2,187.5 116.4,187.5 116.4,78.1 83,78.1 59.1,153.3 58.8,153.3 33.5,78.1 0,78.1 "
   id="polygon1016"
   style="clip-rule:evenodd;fill:#ffffff;fill-rule:evenodd"
   transform="translate(0,-78)" />

</svg>