<?xml version="1.0" encoding="UTF-8" standalone="no"?>
<!-- Generator: Adobe Illustrator 22.0.1, SVG Export Plug-In . SVG Version: 6.00 Build 0)  -->

<svg
   xmlns:dc="http://purl.org/dc/elements/1.1/"
   xmlns:cc="http://creativecommons.org/ns#"
   xmlns:rdf="http://www.w3.org/1999/02/22-rdf-syntax-ns#"
   xmlns:svg="http://www.w3.org/2000/svg"
   xmlns="http://www.w3.org/2000/svg"
   xmlns:sodipodi="http://sodipodi.sourceforge.net/DTD/sodipodi-0.dtd"
   xmlns:inkscape="http://www.inkscape.org/namespaces/inkscape"
   version="1.1"
   id="Lager_1"
   x="0px"
   y="0px"
   viewBox="0 0 457.89998 109.5"
   xml:space="preserve"
   sodipodi:docname="logo.svg"
   width="457.89999"
   height="109.5"
   inkscape:version="0.92.4 (5da689c313, 2019-01-14)"><metadata
   id="metadata1043"><rdf:RDF><cc:Work
       rdf:about=""><dc:format>image/svg+xml</dc:format><dc:type
         rdf:resource="http://purl.org/dc/dcmitype/StillImage" /></cc:Work></rdf:RDF></metadata><defs
   id="defs1041" /><sodipodi:namedview
   pagecolor="#ffffff"
   bordercolor="#666666"
   borderopacity="1"
   objecttolerance="10"
   gridtolerance="10"
   guidetolerance="10"
   inkscape:pageopacity="0"
   inkscape:pageshadow="2"
   inkscape:window-width="1920"
   inkscape:window-height="1017"
   id="namedview1039"
   showgrid="false"
   inkscape:zoom="1.70318"
   inkscape:cx="206.92055"
   inkscape:cy="103.80586"
   inkscape:window-x="-8"
   inkscape:window-y="-8"
   inkscape:window-maximized="1"
   inkscape:current-layer="Lager_1" />
<style
   type="text/css"
   id="style930">
	.st0{fill-rule:evenodd;clip-rule:evenodd;fill:#FFFFFF;}
	.st1{fill-rule:evenodd;clip-rule:evenodd;fill:none;}
	.st2{fill:#FBEA26;}
	.st3{fill-rule:evenodd;clip-rule:evenodd;fill:#191E27;}
	.st4{fill:#FFFFFF;}
	.st5{fill:#191E27;}
</style>

<rect
   x="125.8"
   y="0"
   class="st1"
   width="108.1"
   height="109.4"
   id="rect934"
   style="clip-rule:evenodd;fill:none;fill-rule:evenodd" />
<rect
   x="125.6"
   y="0.099998474"
   class="st2"
   width="108.4"
   height="109.4"
   id="rect936"
   style="fill:#fbea26" />
<polygon
   class="st3"
   points="137.5,106.4 154.7,135.4 154.7,153.9 165,153.9 165,135.7 182.5,106.4 171,106.4 160,125.2 149.1,106.4 "
   id="polygon938"
   style="clip-rule:evenodd;fill:#191e27;fill-rule:evenodd"
   transform="translate(0,-78)" />
<path
   class="st3"
   d="m 213.7,44.5 c -0.9,-1.2 -2.2,-2.2 -3.8,-2.9 -1.6,-0.7 -3.7,-1 -6.1,-1 -1.8,0 -3.6,0.5 -5.4,1.4 -1.8,0.9 -3.4,2.4 -4.5,4.4 h -0.2 V 28.5 h -9.3 V 76 h 9.3 V 58 c 0,-3.5 0.6,-6 1.7,-7.6 1.1,-1.5 3,-2.3 5.5,-2.3 2.2,0 3.8,0.7 4.7,2.1 0.9,1.4 1.3,3.5 1.3,6.4 V 76 h 9.3 V 54.8 c 0,-2.1 -0.2,-4.1 -0.6,-5.8 -0.4,-1.8 -1,-3.3 -1.9,-4.5 z"
   id="path940"
   inkscape:connector-curvature="0"
   style="clip-rule:evenodd;fill:#191e27;fill-rule:evenodd" />
<g
   id="g1014"
   transform="translate(0,-78)">
	<polygon
   class="st0"
   points="258.5,106.4 252.6,106.4 252.6,125.8 256.5,125.8 256.5,112.2 256.6,112.2 261.3,125.8 264.5,125.8 269.2,112.1 269.3,112.1 269.3,125.8 273.2,125.8 273.2,106.4 267.3,106.4 263,119.7 "
   id="polygon942"
   style="clip-rule:evenodd;fill:#ffffff;fill-rule:evenodd" />
	<path
   class="st0"
   d="m 282.2,121.4 v 0 l -3.2,-9.6 h -4.1 l 4.9,13.2 c 0.4,1.1 0,2.5 -1.3,2.6 -0.8,0 -1.5,-0.1 -2.2,-0.1 v 3.2 c 0.8,0.1 1.6,0.1 2.3,0.1 2.6,0 3.9,-0.9 4.8,-3.2 l 5.8,-15.8 h -3.9 z"
   id="path944"
   inkscape:connector-curvature="0"
   style="clip-rule:evenodd;fill:#ffffff;fill-rule:evenodd" />
	<path
   class="st0"
   d="m 298.6,111.4 c -1.6,0 -3.3,0.8 -4.2,2.3 h -0.1 v -2 h -3.6 v 14 h 3.8 v -7.4 c 0,-2.9 0.9,-4 2.9,-4 1.8,0 2.4,1.1 2.4,3.4 v 7.9 h 3.8 V 117 c 0,-3.3 -1,-5.6 -5,-5.6 z"
   id="path946"
   inkscape:connector-curvature="0"
   style="clip-rule:evenodd;fill:#ffffff;fill-rule:evenodd" />
	<path
   class="st0"
   d="m 316.3,113.5 v 0 c -0.9,-1.4 -2.5,-2.1 -4.2,-2.1 -4.1,0 -6.1,3.5 -6.1,7.3 0,3.9 2,7.5 6.2,7.5 1.8,0 3.3,-0.7 4.2,-2.2 h 0.1 v 1.8 h 3.6 v -19.4 h -3.8 z m -3.2,9.8 c -2.4,0 -3.4,-2.3 -3.4,-4.5 0,-2.3 0.9,-4.5 3.4,-4.5 2.5,0 3.3,2.2 3.3,4.4 0,2.4 -0.7,4.6 -3.3,4.6 z"
   id="path948"
   inkscape:connector-curvature="0"
   style="clip-rule:evenodd;fill:#ffffff;fill-rule:evenodd" />
	<g
   id="g954">
		<rect
   x="323.10001"
   y="111.8"
   class="st4"
   width="3.8"
   height="14"
   id="rect950"
   style="fill:#ffffff" />
		<rect
   x="323.10001"
   y="106.4"
   class="st4"
   width="3.8"
   height="3.2"
   id="rect952"
   style="fill:#ffffff" />
	</g>
	<path
   class="st0"
   d="m 339.5,113.6 v 0 c -1,-1.6 -2.4,-2.3 -4.2,-2.3 -3.9,0 -6,3.3 -6,6.9 0,3.9 1.8,7.1 5.9,7.1 1.7,0 3.3,-0.7 4.2,-2.2 h 0.1 v 1.8 c 0,2 -0.9,3.5 -3.1,3.5 -1.3,0 -2.5,-0.5 -2.8,-1.9 h -3.8 c 0.2,3.2 3.4,4.5 6.1,4.5 6.4,0 7.2,-3.9 7.2,-6.2 v -13.1 h -3.6 z m -3.2,8.9 c -2.3,0 -3.1,-2.2 -3.1,-4.2 0,-2.1 0.9,-4 3.1,-4 2.5,0 3.2,2 3.2,4.3 0,2 -1,3.9 -3.2,3.9 z"
   id="path956"
   inkscape:connector-curvature="0"
   style="clip-rule:evenodd;fill:#ffffff;fill-rule:evenodd" />
	<path
   class="st0"
   d="m 354.2,111.4 c -1.4,0 -3.1,0.8 -4,2.3 H 350 v -7.3 h -3.8 v 19.4 h 3.8 v -7.4 c 0,-2.8 0.9,-4 2.9,-4 1.8,0 2.4,1.1 2.4,3.4 v 7.9 h 3.8 v -8.6 c 0.1,-3.4 -0.9,-5.7 -4.9,-5.7 z"
   id="path958"
   inkscape:connector-curvature="0"
   style="clip-rule:evenodd;fill:#ffffff;fill-rule:evenodd" />
	<path
   class="st0"
   d="m 368.6,111.4 c -4.2,0 -7.1,3.2 -7.1,7.4 0,4.3 2.7,7.4 7.1,7.4 3.1,0 5.4,-1.4 6.5,-4.7 h -3.4 c -0.2,0.9 -1.5,1.8 -3,1.8 -2.1,0 -3.3,-1.1 -3.4,-3.6 h 10 c 0.3,-4.3 -2,-8.3 -6.7,-8.3 z m -3.3,5.9 c 0.1,-1.1 0.7,-3 3.2,-3 1.9,0 2.7,1 3,3 z"
   id="path960"
   inkscape:connector-curvature="0"
   style="clip-rule:evenodd;fill:#ffffff;fill-rule:evenodd" />
	<path
   class="st0"
   d="m 382.2,107.6 h -3.8 v 4.2 h -2.3 v 2.6 h 2.3 v 8.3 c 0,2.8 2,3.3 4.4,3.3 0.8,0 1.6,0 2.2,-0.1 v -3 c -0.4,0.1 -0.8,0.1 -1.2,0.1 -1.3,0 -1.6,-0.3 -1.6,-1.6 v -7 h 2.8 v -2.6 h -2.8 z"
   id="path962"
   inkscape:connector-curvature="0"
   style="clip-rule:evenodd;fill:#ffffff;fill-rule:evenodd" />
	<path
   class="st0"
   d="m 393.2,111.4 c -4.2,0 -7.1,3.2 -7.1,7.4 0,4.3 2.7,7.4 7.1,7.4 3.1,0 5.4,-1.4 6.5,-4.7 h -3.4 c -0.2,0.9 -1.5,1.8 -3,1.8 -2.1,0 -3.3,-1.1 -3.4,-3.6 h 10 c 0.3,-4.3 -2,-8.3 -6.7,-8.3 z m -3.3,5.9 c 0.1,-1.1 0.8,-3 3.2,-3 1.9,0 2.7,1 3,3 z"
   id="path964"
   inkscape:connector-curvature="0"
   style="clip-rule:evenodd;fill:#ffffff;fill-rule:evenodd" />
	<path
   class="st0"
   d="m 410.1,111.4 c -1.6,0 -3.3,0.8 -4.2,2.3 h -0.1 v -2 h -3.6 v 14 h 3.8 v -7.4 c 0,-2.9 0.9,-4 3,-4 1.8,0 2.4,1.1 2.4,3.4 v 7.9 h 3.8 V 117 c 0,-3.3 -1.1,-5.6 -5.1,-5.6 z"
   id="path966"
   inkscape:connector-curvature="0"
   style="clip-rule:evenodd;fill:#ffffff;fill-rule:evenodd" />
	<path
   class="st0"
   d="m 424.7,110.7 v 1.1 h -2.3 v 2.6 h 2.3 v 11.5 h 3.8 v -11.5 h 2.6 v -2.6 h -2.6 V 111 c 0,-1.2 0.4,-1.6 1.5,-1.6 0.5,0 0.9,0 1.4,0.1 v -2.9 c -0.6,0 -1.3,-0.1 -2,-0.1 -3.2,-0.1 -4.7,1.7 -4.7,4.2 z"
   id="path968"
   inkscape:connector-curvature="0"
   style="clip-rule:evenodd;fill:#ffffff;fill-rule:evenodd" />
	<g
   id="g976">
		<rect
   x="434.70001"
   y="106.4"
   class="st4"
   width="3.5999999"
   height="3.2"
   id="rect970"
   style="fill:#ffffff" />
		<rect
   x="440.20001"
   y="106.4"
   class="st4"
   width="3.5999999"
   height="3.2"
   id="rect972"
   style="fill:#ffffff" />
		<path
   class="st4"
   d="m 439.3,111.4 c -4.3,0 -7.2,2.9 -7.2,7.4 0,4.4 2.8,7.4 7.2,7.4 4.4,0 7.2,-2.9 7.2,-7.4 -0.1,-4.5 -2.9,-7.4 -7.2,-7.4 z m 0,11.9 c -2.6,0 -3.4,-2.3 -3.4,-4.5 0,-2.3 0.8,-4.5 3.4,-4.5 2.6,0 3.4,2.3 3.4,4.5 -0.1,2.2 -0.8,4.5 -3.4,4.5 z"
   id="path974"
   inkscape:connector-curvature="0"
   style="fill:#ffffff" />
	</g>
	<path
   class="st0"
   d="m 452.6,114.4 v 0 l -0.1,-2.6 h -3.6 v 14 h 3.8 v -6.3 c 0,-2.5 1,-4.5 3.8,-4.5 0.5,0 1,0.1 1.4,0.1 v -3.6 c -0.2,-0.1 -0.6,-0.1 -0.8,-0.1 -2,0 -3.8,1.2 -4.5,3 z"
   id="path978"
   inkscape:connector-curvature="0"
   style="clip-rule:evenodd;fill:#ffffff;fill-rule:evenodd" />
	<path
   class="st0"
   d="m 259.3,149.5 v 0 l -3.2,-9.6 H 252 l 4.9,13.2 c 0.4,1.1 0,2.5 -1.3,2.6 -0.8,0 -1.5,-0.1 -2.2,-0.1 v 3.2 c 0.8,0.1 1.6,0.1 2.3,0.1 2.6,0 3.9,-0.9 4.8,-3.2 l 5.8,-15.8 h -3.9 z"
   id="path980"
   inkscape:connector-curvature="0"
   style="clip-rule:evenodd;fill:#ffffff;fill-rule:evenodd" />
	<path
   class="st0"
   d="m 271.4,142.5 v 0 l -0.1,-2.6 h -3.6 v 14 h 3.8 v -6.3 c 0,-2.5 1,-4.5 3.8,-4.5 0.5,0 1,0.1 1.4,0.1 v -3.6 c -0.2,-0.1 -0.6,-0.1 -0.8,-0.1 -1.9,0 -3.8,1.2 -4.5,3 z"
   id="path982"
   inkscape:connector-curvature="0"
   style="clip-rule:evenodd;fill:#ffffff;fill-rule:evenodd" />
	<polygon
   class="st0"
   points="282.2,144.9 282.2,134.5 278.4,134.5 278.4,153.9 282.2,153.9 282.2,149.1 283.7,147.7 287.5,153.9 292.1,153.9 286.3,145 291.5,139.9 287,139.9 "
   id="polygon984"
   style="clip-rule:evenodd;fill:#ffffff;fill-rule:evenodd" />
	<path
   class="st0"
   d="m 299.1,139.5 c -4.2,0 -7.1,3.2 -7.1,7.4 0,4.3 2.7,7.4 7.1,7.4 3.1,0 5.4,-1.4 6.5,-4.7 h -3.4 c -0.2,0.9 -1.5,1.8 -3,1.8 -2.1,0 -3.3,-1.1 -3.4,-3.6 h 10 c 0.3,-4.3 -2,-8.3 -6.7,-8.3 z m -3.3,5.9 c 0.1,-1.1 0.8,-3 3.2,-3 1.9,0 2.7,1 3,3 z"
   id="path986"
   inkscape:connector-curvature="0"
   style="clip-rule:evenodd;fill:#ffffff;fill-rule:evenodd" />
	<path
   class="st0"
   d="m 315.8,145.5 c -2.2,-0.5 -4.3,-0.7 -4.3,-2.1 0,-1.1 1.3,-1.3 2.1,-1.3 1.4,0 2.5,0.4 2.6,1.9 h 3.6 c -0.3,-3.4 -3.1,-4.5 -6.1,-4.5 -3,0 -6,0.9 -6,4.5 0,2.5 2.2,3.3 4.4,3.7 2.7,0.6 4.3,1 4.3,2.2 0,1.4 -1.4,1.8 -2.5,1.8 -1.5,0 -2.9,-0.7 -2.9,-2.4 h -3.6 c 0.2,3.7 3.3,4.9 6.5,4.9 3.2,0 6.3,-1.2 6.3,-4.9 0,-2.5 -2.2,-3.3 -4.4,-3.8 z"
   id="path988"
   inkscape:connector-curvature="0"
   style="clip-rule:evenodd;fill:#ffffff;fill-rule:evenodd" />
	<path
   class="st0"
   d="m 330.5,139.5 c -1.4,0 -3.1,0.8 -4,2.3 h -0.1 v -7.3 h -3.8 v 19.4 h 3.8 v -7.4 c 0,-2.8 0.9,-4 2.9,-4 1.8,0 2.4,1.1 2.4,3.4 v 7.9 h 3.8 v -8.6 c 0,-3.4 -1,-5.7 -5,-5.7 z"
   id="path990"
   inkscape:connector-curvature="0"
   style="clip-rule:evenodd;fill:#ffffff;fill-rule:evenodd" />
	<g
   id="g998">
		<path
   class="st4"
   d="m 345.1,139.5 c -4.3,0 -7.2,2.9 -7.2,7.4 0,4.5 2.8,7.4 7.2,7.4 4.4,0 7.2,-2.9 7.2,-7.4 0,-4.5 -2.8,-7.4 -7.2,-7.4 z m 0,11.9 c -2.6,0 -3.4,-2.3 -3.4,-4.5 0,-2.2 0.8,-4.5 3.4,-4.5 2.6,0 3.4,2.3 3.4,4.5 0,2.2 -0.8,4.5 -3.4,4.5 z"
   id="path992"
   inkscape:connector-curvature="0"
   style="fill:#ffffff" />
		<rect
   x="346.10001"
   y="134.5"
   class="st4"
   width="3.5999999"
   height="3.2"
   id="rect994"
   style="fill:#ffffff" />
		<rect
   x="340.5"
   y="134.5"
   class="st4"
   width="3.5999999"
   height="3.2"
   id="rect996"
   style="fill:#ffffff" />
	</g>
	<path
   class="st0"
   d="m 364.3,141.8 v 0 c -1,-1.6 -2.4,-2.3 -4.2,-2.3 -3.9,0 -6,3.3 -6,6.9 0,3.9 1.8,7.1 5.9,7.1 1.7,0 3.3,-0.7 4.2,-2.2 h 0.1 v 1.8 c 0,2 -0.9,3.5 -3.1,3.5 -1.3,0 -2.5,-0.5 -2.8,-1.9 h -3.8 c 0.2,3.2 3.4,4.5 6.1,4.5 6.4,0 7.2,-3.9 7.2,-6.2 v -13.1 h -3.6 z m -3.3,8.8 c -2.3,0 -3.1,-2.2 -3.1,-4.2 0,-2.1 0.9,-4 3.1,-4 2.5,0 3.2,2 3.2,4.3 0.1,2 -1,3.9 -3.2,3.9 z"
   id="path1000"
   inkscape:connector-curvature="0"
   style="clip-rule:evenodd;fill:#ffffff;fill-rule:evenodd" />
	<path
   class="st0"
   d="m 378.7,145.5 c -2.2,-0.5 -4.3,-0.7 -4.3,-2.1 0,-1.1 1.3,-1.3 2.1,-1.3 1.4,0 2.5,0.4 2.6,1.9 h 3.6 c -0.3,-3.4 -3.1,-4.5 -6.1,-4.5 -3,0 -6,0.9 -6,4.5 0,2.5 2.2,3.3 4.4,3.7 2.7,0.6 4.3,1 4.3,2.2 0,1.4 -1.4,1.8 -2.5,1.8 -1.5,0 -2.9,-0.7 -2.9,-2.4 h -3.6 c 0.2,3.7 3.3,4.9 6.5,4.9 3.2,0 6.3,-1.2 6.3,-4.9 0,-2.5 -2.1,-3.3 -4.4,-3.8 z"
   id="path1002"
   inkscape:connector-curvature="0"
   style="clip-rule:evenodd;fill:#ffffff;fill-rule:evenodd" />
	<polygon
   class="st0"
   points="389.5,144.9 389.5,134.5 385.7,134.5 385.7,153.9 389.5,153.9 389.5,149.1 390.9,147.7 394.8,153.9 399.4,153.9 393.5,145 398.8,139.9 394.3,139.9 "
   id="polygon1004"
   style="clip-rule:evenodd;fill:#ffffff;fill-rule:evenodd" />
	<path
   class="st0"
   d="m 406.6,139.5 c -4.3,0 -7.2,2.9 -7.2,7.4 0,4.5 2.8,7.4 7.2,7.4 4.4,0 7.2,-2.9 7.2,-7.4 0,-4.5 -2.8,-7.4 -7.2,-7.4 z m 0,11.9 c -2.6,0 -3.4,-2.3 -3.4,-4.5 0,-2.3 0.8,-4.5 3.4,-4.5 2.6,0 3.4,2.3 3.4,4.5 0,2.2 -0.8,4.5 -3.4,4.5 z"
   id="path1006"
   inkscape:connector-curvature="0"
   style="clip-rule:evenodd;fill:#ffffff;fill-rule:evenodd" />
	<rect
   x="416.29999"
   y="134.5"
   class="st0"
   width="3.8"
   height="19.4"
   id="rect1008"
   style="clip-rule:evenodd;fill:#ffffff;fill-rule:evenodd" />
	<path
   class="st0"
   d="m 435.5,143.5 c 0,-3.4 -3.3,-4 -6.1,-4 -3.1,0 -6.3,1.1 -6.5,4.7 h 3.8 c 0.1,-1.5 1.1,-2.1 2.5,-2.1 1.3,0 2.5,0.2 2.5,1.9 0,1.6 -2.2,1.5 -4.5,1.8 -2.4,0.3 -4.7,1.1 -4.7,4.3 0,2.9 2.1,4.2 4.7,4.2 1.7,0 3.5,-0.5 4.7,-1.7 0,0.5 0.1,0.9 0.3,1.4 h 3.9 c -0.3,-0.6 -0.5,-1.8 -0.5,-3.1 v -7.4 z m -3.8,5 c 0,0.8 -0.1,3.2 -3.1,3.2 -1.2,0 -2.3,-0.4 -2.3,-1.8 0,-1.4 1.1,-1.8 2.3,-2.1 1.2,-0.2 2.5,-0.2 3.2,-0.8 v 1.5 z"
   id="path1010"
   inkscape:connector-curvature="0"
   style="clip-rule:evenodd;fill:#ffffff;fill-rule:evenodd" />
	<path
   class="st0"
   d="m 446.5,139.5 c -1.6,0 -3.3,0.8 -4.2,2.3 h -0.1 v -2 h -3.6 v 14 h 3.8 v -7.4 c 0,-2.8 0.9,-4 3,-4 1.8,0 2.4,1.1 2.4,3.4 v 7.9 h 3.8 v -8.6 c 0,-3.3 -1.1,-5.6 -5.1,-5.6 z"
   id="path1012"
   inkscape:connector-curvature="0"
   style="clip-rule:evenodd;fill:#ffffff;fill-rule:evenodd" />
</g>
<polygon
   class="st0"
   points="33.5,78.1 0,78.1 0,187.5 22.3,187.5 22.3,110.7 22.6,110.7 49.1,187.5 67.4,187.5 93.9,109.9 94.2,109.9 94.2,187.5 116.4,187.5 116.4,78.1 83,78.1 59.1,153.3 58.8,153.3 "
   id="polygon1016"
   style="clip-rule:evenodd;fill:#ffffff;fill-rule:evenodd"
   transform="translate(0,-78)" />

</svg>